<svg width="66" height="92" viewBox="0 0 66 92" fill="none" xmlns="http://www.w3.org/2000/svg">
<path d="M33.68 91.896C27.4507 91.896 21.8187 90.8293 16.784 88.696C11.8347 86.5627 7.90933 83.4907 5.008 79.48C2.10667 75.4693 0.613334 70.7333 0.528 65.272H19.728C19.984 68.9413 21.264 71.8427 23.568 73.976C25.9573 76.1093 29.2 77.176 33.296 77.176C37.4773 77.176 40.7627 76.1947 43.152 74.232C45.5413 72.184 46.736 69.5387 46.736 66.296C46.736 63.6507 45.9253 61.4747 44.304 59.768C42.6827 58.0613 40.6347 56.7387 38.16 55.8C35.7707 54.776 32.4427 53.6667 28.176 52.472C22.3733 50.7653 17.6373 49.1013 13.968 47.48C10.384 45.7733 7.26933 43.256 4.624 39.928C2.064 36.5147 0.784 31.992 0.784 26.36C0.784 21.0693 2.10667 16.4613 4.752 12.536C7.39733 8.61066 11.1093 5.624 15.888 3.576C20.6667 1.44267 26.128 0.375999 32.272 0.375999C41.488 0.375999 48.9547 2.63733 54.672 7.16C60.4747 11.5973 63.6747 17.8267 64.272 25.848H44.56C44.3893 22.776 43.0667 20.2587 40.592 18.296C38.2027 16.248 35.0027 15.224 30.992 15.224C27.4933 15.224 24.6773 16.12 22.544 17.912C20.496 19.704 19.472 22.3067 19.472 25.72C19.472 28.1093 20.24 30.1147 21.776 31.736C23.3973 33.272 25.36 34.552 27.664 35.576C30.0533 36.5147 33.3813 37.624 37.648 38.904C43.4507 40.6107 48.1867 42.3173 51.856 44.024C55.5253 45.7307 58.6827 48.2907 61.328 51.704C63.9733 55.1173 65.296 59.5973 65.296 65.144C65.296 69.9227 64.0587 74.36 61.584 78.456C59.1093 82.552 55.4827 85.8373 50.704 88.312C45.9253 90.7013 40.2507 91.896 33.68 91.896Z" fill="white"/>
</svg>
